Coordinates
version=1
nRows=38
nColumns=12
inDegrees=yes

Units are S.I. units (second, meters, Newtons, ...)
Angles are in degrees

endheader
time	SC_y	SC_z	SC_x	AC_y	AC_z	AC_x	GH_y	GH_z	GH_yy	EL_x	PS_y
       0.0              -44.45           13.5          22.82          47.45         -1.898         -18.38          26.73           60.1          76.62          63.64          65.49
   0.02551              -44.45           13.5          22.83          47.45         -1.896         -18.38          26.71          60.09           76.6          63.64          65.49
   0.05103              -44.45          13.51          22.84          47.45         -1.895         -18.37          26.69          60.08          76.57          63.65          65.49
   0.07654              -44.46          13.51          22.85          47.45         -1.893         -18.37          26.67          60.07          76.54          63.65          65.49
    0.1021              -44.46          13.51          22.86          47.46         -1.892         -18.36          26.64          60.06          76.51          63.66          65.48
    0.1276              -44.46          13.51          22.87          47.46          -1.89         -18.36          26.62          60.05          76.47          63.66          65.48
    0.1531              -44.46          13.51          22.88          47.46         -1.888         -18.35          26.59          60.04          76.44          63.67          65.47
    0.1786              -44.46          13.51           22.9          47.47         -1.886         -18.35          26.56          60.03           76.4          63.68          65.47
    0.2041              -44.46          13.51          22.91          47.47         -1.884         -18.34          26.53          60.02          76.35          63.69          65.47
    0.2296              -44.46          13.51          22.92          47.48         -1.881         -18.34           26.5           60.0          76.31          63.69          65.46
    0.2551              -44.46          13.51          22.94          47.48         -1.879         -18.33          26.46          59.99          76.26           63.7          65.46
    0.2806              -44.47          13.52          22.96          47.49         -1.876         -18.32          26.43          59.97          76.21          63.71          65.45
    0.3062              -44.47          13.52          22.98          47.49         -1.873         -18.31          26.39          59.95          76.15          63.72          65.45
    0.3317              -44.47          13.52           23.0           47.5          -1.87         -18.31          26.34          59.94          76.09          63.73          65.44
    0.3572              -44.47          13.52          23.02           47.5         -1.866          -18.3           26.3          59.92          76.02          63.75          65.43
    0.3827              -44.47          13.52          23.04          47.51         -1.863         -18.29          26.24          59.89          75.95          63.76          65.42
    0.4082              -44.48          13.53          23.07          47.52         -1.858         -18.28          26.19          59.87          75.88          63.77          65.42
    0.4337              -44.48          13.53           23.1          47.53         -1.854         -18.26          26.13          59.85          75.79          63.79          65.41
    0.4592              -44.48          13.53          23.13          47.53         -1.849         -18.25          26.06          59.82           75.7           63.8           65.4
    0.4847              -44.49          13.53          23.16          47.54         -1.844         -18.24          25.99          59.79           75.6          63.82          65.39
    0.5103              -44.49          13.54           23.2          47.55         -1.838         -18.22          25.91          59.75          75.49          63.84          65.38
    0.5358              -44.49          13.54          23.24          47.57         -1.832         -18.21          25.82          59.72          75.37          63.86          65.36
    0.5613               -44.5          13.54          23.28          47.58         -1.825         -18.19          25.72          59.68          75.23          63.89          65.35
    0.5868               -44.5          13.55          23.33          47.59         -1.817         -18.17          25.62          59.63          75.08          63.92          65.33
    0.6123              -44.51          13.55          23.39          47.61         -1.808         -18.14           25.5          59.58          74.91          63.95          65.31
    0.6378              -44.51          13.56          23.45          47.63         -1.798         -18.12          25.36          59.53          74.73          63.98           65.3
    0.6633              -44.52          13.56          23.52          47.65         -1.787         -18.09          25.21          59.46          74.52          64.02          65.27
    0.6888              -44.53          13.57           23.6          47.67         -1.775         -18.06          25.05          59.39          74.29          64.06          65.25
    0.7144              -44.54          13.58          23.68          47.69         -1.761         -18.02          24.86          59.31          74.02          64.11          65.22
    0.7399              -44.55          13.59          23.78          47.72         -1.745         -17.98          24.64          59.22          73.72          64.16          65.19
    0.7654              -44.56           13.6           23.9          47.75         -1.728         -17.93          24.39          59.12          73.38          64.22          65.15
    0.7909              -44.57          13.61          24.03          47.79         -1.707         -17.87          24.11           59.0          72.99          64.29          65.11
    0.8164              -44.58          13.62          24.18          47.84         -1.683         -17.81          23.79          58.87          72.54          64.38          65.06
    0.8419               -44.6          13.64          24.35          47.89         -1.655         -17.74          23.41          58.71          72.01          64.47          65.01
    0.8674              -44.62          13.65          24.56          47.94         -1.623         -17.65          22.96          58.52          71.39          64.58          64.94
    0.8929              -44.64          13.68           24.8          48.01         -1.585         -17.55          22.44          58.31          70.67          64.71          64.87
    0.9185              -44.67           13.7          25.09           48.1          -1.54         -17.43          21.82          58.05           69.8          64.87          64.78
     0.944              -44.71          13.73          25.43          48.19         -1.485         -17.29          21.07          57.74          68.77          65.06          64.67
